<svg xmlns="http://www.w3.org/2000/svg" xmlns:xlink="http://www.w3.org/1999/xlink" width="257.689" height="171.747" viewBox="0 0 257.689 171.747">
  <defs>
    <clipPath id="clip-path">
      <rect id="Rectangle_73" data-name="Rectangle 73" width="169.324" height="91.497" fill="none"/>
    </clipPath>
    <clipPath id="clip-path-3">
      <rect id="Rectangle_54" data-name="Rectangle 54" width="6.465" height="3.744" fill="none"/>
    </clipPath>
    <clipPath id="clip-path-4">
      <rect id="Rectangle_55" data-name="Rectangle 55" width="4.644" height="2.618" fill="none"/>
    </clipPath>
    <clipPath id="clip-path-5">
      <rect id="Rectangle_56" data-name="Rectangle 56" width="2.46" height="3.209" fill="none"/>
    </clipPath>
    <clipPath id="clip-path-6">
      <rect id="Rectangle_68" data-name="Rectangle 68" width="129.838" height="3.037" fill="none"/>
    </clipPath>
    <clipPath id="clip-path-7">
      <rect id="Rectangle_69" data-name="Rectangle 69" width="17.317" height="24.704" fill="none"/>
    </clipPath>
    <clipPath id="clip-path-8">
      <rect id="Rectangle_70" data-name="Rectangle 70" width="4.083" height="6.076" fill="none"/>
    </clipPath>
    <clipPath id="clip-path-9">
      <rect id="Rectangle_71" data-name="Rectangle 71" width="9.05" height="3.415" fill="none"/>
    </clipPath>
    <clipPath id="clip-path-10">
      <rect id="Rectangle_103" data-name="Rectangle 103" width="41.746" height="41.746" fill="none"/>
    </clipPath>
  </defs>
  <g id="Group_392" data-name="Group 392" transform="translate(-554 -256.002)">
    <g id="Group_241" data-name="Group 241" transform="translate(-6 36.867)">
      <g id="Group_115" data-name="Group 115" transform="translate(-4806.636 -413)">
        <path id="Path_146" data-name="Path 146" d="M41.379,4.087a3.78,3.78,0,1,0,7.536,0,3.78,3.78,0,1,0-7.536,0M55.72,0a3.948,3.948,0,0,0-3.768,4.086h0A3.948,3.948,0,0,0,55.72,8.173h3.618a5.721,5.721,0,0,1,5.46,5.921,5.721,5.721,0,0,1-5.46,5.92H37.6c-7.713,0-14.023,6.843-14.023,15.207S29.889,50.428,37.6,50.428H45.23c7.418,0,13.487,6.582,13.487,14.626s-6.71,14.627-14.128,14.627c-17.545,0-31.9,15.567-31.9,34.593s14.354,34.593,31.9,34.593H236.363c10.836,0,19.7-9.613,19.7-21.363s-8.865-21.363-19.7-21.363H202.214c-5.679,0-10.326-5.038-10.326-11.2s4.646-11.2,10.326-11.2h1.228c5.9,0,10.736-5.239,10.736-11.642s-4.831-11.642-10.736-11.642H179.577s-24.983-.871-28.343-11.687-6.071-16.254-25.259-16.254h-7.106c-3.918,0-7.124-3.476-7.124-7.725s3.206-7.725,7.124-7.725h4.722a5.152,5.152,0,0,0,4.916-5.332h0a5.152,5.152,0,0,0-4.916-5.331H96.442C83.811,6.407,83.254,0,78.253,0Z" transform="translate(5361.018 632.133)" fill="#eef7fe"/>
        <path id="Path_148" data-name="Path 148" d="M946.709,225.1h0a.519.519,0,0,1,.517.517v4.517a.517.517,0,0,1-1.034,0v-4.517a.518.518,0,0,1,.517-.517" transform="translate(4557.324 433.081)" fill="#a382b6" fill-rule="evenodd"/>
        <path id="Path_149" data-name="Path 149" d="M938.459,238.9h0a.518.518,0,0,1-.517.517h-4.517a.517.517,0,1,1,0-1.033h4.517a.518.518,0,0,1,.517.517" transform="translate(4568.348 422.055)" fill="#a382b6" fill-rule="evenodd"/>
        <path id="Path_150" data-name="Path 150" d="M472.588,312.98h0a.583.583,0,0,1,.582.581v5.083a.581.581,0,0,1-1.163,0v-5.083a.583.583,0,0,1,.581-.581" transform="translate(4937.17 349.775)" fill="#a382b6" fill-rule="evenodd"/>
        <path id="Path_151" data-name="Path 151" d="M463.306,328.508h0a.583.583,0,0,1-.581.581h-5.083a.581.581,0,1,1,0-1.163h5.083a.583.583,0,0,1,.581.581" transform="translate(4949.576 337.369)" fill="#a382b6" fill-rule="evenodd"/>
        <path id="Path_152" data-name="Path 152" d="M622.482,188.415a1.844,1.844,0,0,0-2.6,0l0,0a1.844,1.844,0,0,0,0,2.6v0a1.842,1.842,0,0,0,2.6-2.6Zm-1.3-1.565a2.858,2.858,0,0,1,2.027.84h0a2.865,2.865,0,1,1-4.052,4.052h0a2.864,2.864,0,0,1,0-4.052h0a2.857,2.857,0,0,1,2.025-.84" transform="translate(4829.453 464.829)" fill="#604288"/>
        <path id="Path_153" data-name="Path 153" d="M766.477,348.645a1.572,1.572,0,0,0-2.221,0l0,0a1.572,1.572,0,0,0,0,2.221v0a1.572,1.572,0,0,0,2.223-2.223Zm-1.111-1.337a2.44,2.44,0,0,1,1.73.717h0a2.446,2.446,0,1,1-3.458,3.459h0a2.445,2.445,0,0,1,0-3.459h0a2.441,2.441,0,0,1,1.728-.717" transform="translate(4709.435 331.653)" fill="#604288"/>
        <path id="Path_154" data-name="Path 154" d="M1135.251,97.02h0a.518.518,0,0,1,.517.517v4.517a.517.517,0,0,1-1.033,0V97.537a.519.519,0,0,1,.517-.517" transform="translate(4400.839 539.385)" fill="#a382b6" fill-rule="evenodd"/>
        <path id="Path_155" data-name="Path 155" d="M1127,110.821h0a.518.518,0,0,1-.517.517h-4.517a.517.517,0,1,1,0-1.033h4.517a.518.518,0,0,1,.517.517" transform="translate(4411.864 528.36)" fill="#a382b6" fill-rule="evenodd"/>
        <path id="Path_156" data-name="Path 156" d="M1274.4,314.317a1.895,1.895,0,0,0-2.676,0l0,0a1.9,1.9,0,0,0,0,2.676v0a1.894,1.894,0,0,0,2.678-2.678Zm-1.338-1.61a2.939,2.939,0,0,1,2.084.864h0a2.946,2.946,0,1,1-4.166,4.166h0a2.946,2.946,0,0,1,0-4.166h0a2.938,2.938,0,0,1,2.082-.864" transform="translate(4288.479 360.371)" fill="#604288"/>
        <path id="Path_157" data-name="Path 157" d="M5.816,503.357a2.571,2.571,0,0,0-3.632,0l0,0a2.572,2.572,0,0,0,0,3.632v0a2.57,2.57,0,0,0,3.634-3.634ZM4,501.173a3.988,3.988,0,0,1,2.828,1.171v0A4,4,0,1,1,1.173,508h0a4,4,0,0,1,0-5.654h0v0A3.988,3.988,0,0,1,4,501.173" transform="translate(5366.636 179.905)" fill="#604288"/>
        <path id="Path_158" data-name="Path 158" d="M111.756,553.779h0a.618.618,0,0,1,.617.617v5.389a.617.617,0,1,1-1.233,0V554.4a.618.618,0,0,1,.617-.617" transform="translate(5271.394 152.288)" fill="#a382b6" fill-rule="evenodd"/>
        <path id="Path_159" data-name="Path 159" d="M101.914,570.244h0a.618.618,0,0,1-.617.617H95.908a.617.617,0,0,1,0-1.233H101.3a.618.618,0,0,1,.617.616" transform="translate(5284.546 139.134)" fill="#a382b6" fill-rule="evenodd"/>
        <path id="Path_160" data-name="Path 160" d="M1615.578,505.614h0a1.211,1.211,0,0,1,1.208,1.207v4.072h4.072a1.211,1.211,0,0,1,1.208,1.208h0a1.211,1.211,0,0,1-1.208,1.208h-4.072v4.072a1.211,1.211,0,0,1-1.208,1.208h0a1.211,1.211,0,0,1-1.208-1.208v-4.072H1610.3a1.212,1.212,0,0,1-1.208-1.208h0a1.211,1.211,0,0,1,1.208-1.208h4.072v-4.072a1.211,1.211,0,0,1,1.208-1.207" transform="translate(4002.259 195.386)" fill="#a382b6" fill-rule="evenodd"/>
      </g>
      <g id="Group_113" data-name="Group 113" transform="translate(608 268.504)">
        <g id="Group_112" data-name="Group 112" clip-path="url(#clip-path)">
          <g id="Group_111" data-name="Group 111">
            <g id="Group_110" data-name="Group 110" clip-path="url(#clip-path)">
              <path id="Path_90" data-name="Path 90" d="M226.334,19.8l-.943-3.181,1.986-2.865-4.891-3.462-1.892,3.153a.448.448,0,0,1-.122.15.428.428,0,0,1-.252.049q-1.634-.022-3.267-.062c-.537-1.041-1.058-2.033-1.645-2.981a.35.35,0,0,0-.187-.177.336.336,0,0,0-.244.074l-3.884,2.385a.267.267,0,0,0-.09.075c-.056.084-.008.2.041.285a14.1,14.1,0,0,0,1.734,2.464,32.012,32.012,0,0,1-1.873,3.106,1.282,1.282,0,0,1-.616.566,1.247,1.247,0,0,1-.692-.061q-1.367-.394-2.7-.894a9.321,9.321,0,0,0-.406,5.851,26.158,26.158,0,0,0,3.453-.346l2.015,3.571-1.617,2.718,3.706,2.759,1.925-2.875,3.4.069,1.311,3.033,5.066-1.789L224.418,28.3l1.822-3.017,3.436-.281.107-4.28Zm-5.843,1.619a1.332,1.332,0,0,1-.152.583,2.159,2.159,0,0,1-.167.341,3.006,3.006,0,0,1-.467.558,3.614,3.614,0,0,1-1.229.768,3.17,3.17,0,0,1-.583.15,1.78,1.78,0,0,1-.507.027,3.247,3.247,0,0,0-.326-.048c.3,0-.028,0-.146-.03a2.255,2.255,0,0,1-1.285-1.07,2.293,2.293,0,0,1-.3-.954,2.177,2.177,0,0,1,.181-.893A6.288,6.288,0,0,1,216.1,19.7a3.032,3.032,0,0,1,1.045-1.036,1.615,1.615,0,0,1,1.337-.094.719.719,0,0,1,.549-.045,1.815,1.815,0,0,1,.8.545,2.934,2.934,0,0,1,.484.844,2.185,2.185,0,0,1,.1.3c.015.061.025.122.035.183l.038.287c0-.022,0-.043,0-.065-.01-.083-.008-.086.006-.01.014.1.027.194.039.291a1.268,1.268,0,0,1,.006.146,1.558,1.558,0,0,1-.042.367" transform="translate(-61.1 -3.051)" fill="#fff"/>
              <path id="Path_91" data-name="Path 91" d="M213.643,24.9a.122.122,0,0,1-.032,0,.115.115,0,0,1-.078-.141c.967-3.383,2.11-6.755,3.4-10.023a.114.114,0,0,1,.212.083c-1.284,3.262-2.424,6.627-3.389,10a.113.113,0,0,1-.109.082" transform="translate(-63.304 -4.345)"/>
              <path id="Path_92" data-name="Path 92" d="M215.758,25.984a.117.117,0,0,1-.031,0,.113.113,0,0,1-.079-.14,56.766,56.766,0,0,1,3.511-9.3.114.114,0,1,1,.2.1,56.526,56.526,0,0,0-3.5,9.266.114.114,0,0,1-.109.083" transform="translate(-63.931 -4.883)"/>
              <path id="Path_93" data-name="Path 93" d="M214.966,36.043a.117.117,0,0,1-.043-.008.113.113,0,0,1-.062-.148l2.461-6.061a.113.113,0,1,1,.21.085l-2.461,6.061a.114.114,0,0,1-.106.071" transform="translate(-63.696 -8.821)"/>
              <path id="Path_94" data-name="Path 94" d="M219.556,35.282a.12.12,0,0,1-.042-.008.114.114,0,0,1-.064-.148l1.373-3.478a.114.114,0,1,1,.212.084l-1.373,3.478a.114.114,0,0,1-.106.072" transform="translate(-65.057 -9.361)"/>
              <path id="Path_95" data-name="Path 95" d="M223.206,19.538a.1.1,0,0,1-.033,0,.113.113,0,0,1-.075-.142l.654-2.137a.114.114,0,0,1,.217.067l-.655,2.137a.114.114,0,0,1-.108.08" transform="translate(-66.139 -5.092)"/>
              <path id="Path_96" data-name="Path 96" d="M226.884,18.965a.114.114,0,0,1-.107-.153c.67-1.83,1.441-3.646,2.289-5.4a.114.114,0,1,1,.2.1,58.352,58.352,0,0,0-2.28,5.377.114.114,0,0,1-.107.075" transform="translate(-67.229 -3.958)"/>
              <path id="Path_97" data-name="Path 97" d="M223.2,31.1a.11.11,0,0,1-.047-.011.112.112,0,0,1-.056-.151l6.245-13.528a.113.113,0,1,1,.205.1L223.3,31.03a.115.115,0,0,1-.1.066" transform="translate(-66.138 -5.141)"/>
              <path id="Path_98" data-name="Path 98" d="M226.751,33.692a.126.126,0,0,1-.047-.01.114.114,0,0,1-.056-.151l4.192-9.2a.114.114,0,1,1,.207.094l-4.192,9.2a.113.113,0,0,1-.1.067" transform="translate(-67.19 -7.193)"/>
              <path id="Path_99" data-name="Path 99" d="M233.105,29.584a.116.116,0,0,1-.054-.013.114.114,0,0,1-.046-.154L234.851,26a.113.113,0,1,1,.2.108l-1.845,3.419a.114.114,0,0,1-.1.06" transform="translate(-69.074 -7.69)"/>
              <path id="Path_100" data-name="Path 100" d="M228.705,39.5a.113.113,0,0,1-.1-.163l.834-1.71a.113.113,0,1,1,.2.1l-.834,1.71a.113.113,0,0,1-.1.064" transform="translate(-67.769 -11.137)"/>
              <path id="Path_101" data-name="Path 101" d="M208.652,26.985a.109.109,0,0,1-.049-.011.113.113,0,0,1-.054-.151l1.131-2.381a.114.114,0,0,1,.205.1l-1.131,2.381a.114.114,0,0,1-.1.065" transform="translate(-61.824 -7.227)"/>
              <path id="Path_102" data-name="Path 102" d="M215.421,14.588a.107.107,0,0,1-.054-.014.114.114,0,0,1-.046-.154l.834-1.526a.112.112,0,0,1,.154-.045.114.114,0,0,1,.046.154l-.834,1.526a.113.113,0,0,1-.1.059" transform="translate(-63.831 -3.805)"/>
              <g id="Group_91" data-name="Group 91" transform="translate(153.924 18.572)" opacity="0.129">
                <g id="Group_90" data-name="Group 90">
                  <g id="Group_89" data-name="Group 89" clip-path="url(#clip-path-3)">
                    <path id="Path_103" data-name="Path 103" d="M225.249,26.828a.492.492,0,0,0-.962-.068c-.16.5-.1.415-.628.934-.51.417-.324.293-1.12.59a1.645,1.645,0,0,1-1.324.113,3.435,3.435,0,0,1-.793-.386c-.241-.125-.456-.348-.734-.367a.824.824,0,0,0-.512,1.52,3.8,3.8,0,0,0,4.175.58,3.6,3.6,0,0,0,1.636-2.032,1.934,1.934,0,0,0,.263-.885" transform="translate(-218.786 -26.398)"/>
                  </g>
                </g>
              </g>
              <g id="Group_94" data-name="Group 94" transform="translate(159.344 27.481)" opacity="0.129">
                <g id="Group_93" data-name="Group 93">
                  <g id="Group_92" data-name="Group 92" clip-path="url(#clip-path-4)">
                    <path id="Path_104" data-name="Path 104" d="M229.82,39.174a6.563,6.563,0,0,1-1.611.477c-.443.142-.984.07-1.363.364a.927.927,0,0,0,.789,1.626c1.111-.236,2.389-.284,3.253-1.121a.867.867,0,0,0-1.069-1.346" transform="translate(-226.49 -39.061)"/>
                  </g>
                </g>
              </g>
              <g id="Group_97" data-name="Group 97" transform="translate(166.523 19.197)" opacity="0.129">
                <g id="Group_96" data-name="Group 96">
                  <g id="Group_95" data-name="Group 95" clip-path="url(#clip-path-5)">
                    <path id="Path_105" data-name="Path 105" d="M239.151,28.32c0-.01,0-.019,0-.028l0,.027a1.047,1.047,0,0,0-.132-.541.99.99,0,0,0-1.778.144l-.06.125c-.074.148-.122.307-.182.461-.05.116-.12.278-.162.369a1.1,1.1,0,0,0-.144.547,1.056,1.056,0,0,0,2.077.288,4.521,4.521,0,0,0,.357-1.206,1.023,1.023,0,0,0,.023-.185" transform="translate(-236.694 -27.287)"/>
                  </g>
                </g>
              </g>
              <path id="Path_106" data-name="Path 106" d="M220.4,33.3a.341.341,0,0,1-.317-.216,17.1,17.1,0,0,0-1.31-2.8,14.492,14.492,0,0,1-3.191-.034c-.3.549-.6,1.109-.905,1.7-.174.333-.353.675-.542,1.03a.341.341,0,0,1-.426.157,9.848,9.848,0,0,1-4.119-3.036.341.341,0,0,1-.011-.408c.561-.79,1.139-1.6,1.757-2.594a14.616,14.616,0,0,1-1.776-3.154c-.25.051-.5.1-.753.158-.794.17-1.614.344-2.5.469a.342.342,0,0,1-.377-.248,10.743,10.743,0,0,1,.417-6.269.34.34,0,0,1,.407-.221c1.119.284,2.275.578,3.482.873a28.472,28.472,0,0,1,1.724-3.04,21.836,21.836,0,0,1-1.722-2.623.342.342,0,0,1,.07-.415,16.73,16.73,0,0,1,4.56-2.88.34.34,0,0,1,.435.145,29.227,29.227,0,0,1,1.5,3.1,14.325,14.325,0,0,1,3.492-.126c.521-1,1.065-2.04,1.746-3.124a.34.34,0,0,1,.446-.121,20.368,20.368,0,0,1,3.722,2.5c.314.265.617.538.91.8a1.114,1.114,0,0,1,.388.533.34.34,0,0,1-.047.273c-.261.392-.529.779-.8,1.176-.375.542-.763,1.1-1.164,1.717.345.864.7,1.752,1.017,2.635a12.129,12.129,0,0,1,3.544.832.341.341,0,0,1,.21.295,11.509,11.509,0,0,1-.692,4.82.338.338,0,0,1-.332.221l-.382-.015a22.284,22.284,0,0,0-2.715,0,11.236,11.236,0,0,1-1.717,2.773,26.067,26.067,0,0,1,1.486,2.951.341.341,0,0,1-.152.429,14.3,14.3,0,0,1-5.323,1.724l-.037,0m-1.455-3.723a.34.34,0,0,1,.286.156,15.9,15.9,0,0,1,1.389,2.856,13.59,13.59,0,0,0,4.541-1.469,28.942,28.942,0,0,0-1.442-2.791.345.345,0,0,1,.033-.387,10.573,10.573,0,0,0,1.831-2.963.341.341,0,0,1,.287-.219,21.476,21.476,0,0,1,3.014-.025l.132,0a10.791,10.791,0,0,0,.577-4.093,11.891,11.891,0,0,0-3.361-.723.339.339,0,0,1-.292-.226c-.353-1-.757-2-1.147-2.98a.338.338,0,0,1,.03-.312c.443-.685.864-1.294,1.273-1.883.231-.333.456-.659.677-.986-.035-.035-.077-.073-.108-.1-.289-.261-.589-.53-.895-.789a19.678,19.678,0,0,0-3.318-2.27c-.635,1.036-1.154,2.038-1.657,3.009a.341.341,0,0,1-.337.182,13.726,13.726,0,0,0-3.807.143.343.343,0,0,1-.376-.208,28.448,28.448,0,0,0-1.418-3,16.1,16.1,0,0,0-3.891,2.453,23.084,23.084,0,0,0,1.679,2.491.342.342,0,0,1,.016.386,27.507,27.507,0,0,0-1.921,3.414.34.34,0,0,1-.393.193c-1.2-.292-2.343-.582-3.453-.863a10.092,10.092,0,0,0-.379,5.279c.749-.117,1.459-.269,2.149-.416.347-.074.691-.147,1.036-.215a.34.34,0,0,1,.381.2,13.943,13.943,0,0,0,1.937,3.437.342.342,0,0,1,.024.392c-.622,1.01-1.2,1.834-1.757,2.621a9.155,9.155,0,0,0,3.392,2.51q.2-.384.395-.752c.348-.665.676-1.292,1.025-1.912a.343.343,0,0,1,.333-.172,13.906,13.906,0,0,0,3.464.031.4.4,0,0,1,.05,0" transform="translate(-60.964 -2.841)"/>
              <path id="Path_107" data-name="Path 107" d="M221.3,27.1a3.292,3.292,0,0,1-1.337-.283,1.853,1.853,0,0,1-.8-.612,2.11,2.11,0,0,1-.318-1.062,4.132,4.132,0,0,1,.752-2.872,2.592,2.592,0,0,1,2.8-.955.333.333,0,0,1,.151.1l.03.01A2.8,2.8,0,0,1,224.4,23.9a3.07,3.07,0,0,1-1.422,2.726,3.156,3.156,0,0,1-1.679.473m.4-5.216a2.058,2.058,0,0,0-1.57.806,3.461,3.461,0,0,0-.61,2.4,1.5,1.5,0,0,0,.2.724,1.2,1.2,0,0,0,.517.38,2.561,2.561,0,0,0,2.377-.145,2.412,2.412,0,0,0,1.1-2.111,2.131,2.131,0,0,0-1.358-1.863l-.086-.027a.7.7,0,0,1-.274-.136,1.546,1.546,0,0,0-.3-.029m.584-.246.074.333h0Z" transform="translate(-64.874 -6.287)"/>
              <rect id="Rectangle_57" data-name="Rectangle 57" width="129.551" height="80.246" transform="translate(0.341 2.785)" fill="#fff"/>
              <path id="Path_108" data-name="Path 108" d="M129.892,84.4H.341A.341.341,0,0,1,0,84.061V3.816a.341.341,0,0,1,.341-.341H129.892a.341.341,0,0,1,.34.341V84.061a.341.341,0,0,1-.34.341M.682,83.72H129.551V4.156H.682Z" transform="translate(0 -1.03)"/>
              <rect id="Rectangle_58" data-name="Rectangle 58" width="129.551" height="8.055" transform="translate(0.341 0.341)" fill="#fff"/>
              <path id="Path_109" data-name="Path 109" d="M129.892,8.736H.341A.341.341,0,0,1,0,8.4V.341A.341.341,0,0,1,.341,0H129.892a.341.341,0,0,1,.34.341V8.4a.341.341,0,0,1-.34.341M.682,8.055H129.551V.682H.682Z"/>
              <path id="Path_110" data-name="Path 110" d="M144.021,51.683H106.747a.341.341,0,0,1-.341-.341V29.934a.341.341,0,0,1,.341-.341h37.275a.341.341,0,0,1,.341.341V51.343a.341.341,0,0,1-.341.341M107.088,51H143.68V30.275H107.088Z" transform="translate(-31.546 -8.773)"/>
              <rect id="Rectangle_60" data-name="Rectangle 60" width="6.052" height="37.139" transform="translate(14.248 26.85)" fill="#fff"/>
              <path id="Path_111" data-name="Path 111" d="M26.16,75.5H20.108a.341.341,0,0,1-.341-.341V38.022a.341.341,0,0,1,.341-.341H26.16a.341.341,0,0,1,.341.341V75.16a.341.341,0,0,1-.341.341m-5.711-.682h5.37V38.363h-5.37Z" transform="translate(-5.86 -11.171)"/>
              <rect id="Rectangle_61" data-name="Rectangle 61" width="6.052" height="19.594" transform="translate(14.248 44.395)" fill="#acd4f7"/>
              <path id="Path_112" data-name="Path 112" d="M26.16,82.895H20.108a.341.341,0,0,1-.341-.341V62.959a.342.342,0,0,1,.341-.341H26.16a.341.341,0,0,1,.341.341V82.553a.341.341,0,0,1-.341.341m-5.711-.682h5.37V63.3h-5.37Z" transform="translate(-5.86 -18.564)"/>
              <rect id="Rectangle_62" data-name="Rectangle 62" width="6.052" height="37.139" transform="translate(26.351 26.85)" fill="#fff"/>
              <path id="Path_113" data-name="Path 113" d="M43.363,75.5H37.312a.341.341,0,0,1-.341-.341V38.022a.341.341,0,0,1,.341-.341h6.052a.341.341,0,0,1,.341.341V75.16a.341.341,0,0,1-.341.341m-5.711-.682h5.37V38.363h-5.37Z" transform="translate(-10.961 -11.171)"/>
              <rect id="Rectangle_63" data-name="Rectangle 63" width="6.052" height="37.139" transform="translate(38.441 26.85)" fill="#fff"/>
              <path id="Path_114" data-name="Path 114" d="M60.547,75.5H54.5a.341.341,0,0,1-.341-.341V38.022a.341.341,0,0,1,.341-.341h6.051a.341.341,0,0,1,.341.341V75.16a.341.341,0,0,1-.341.341m-5.711-.682h5.37V38.363h-5.37Z" transform="translate(-16.055 -11.171)"/>
              <rect id="Rectangle_64" data-name="Rectangle 64" width="6.052" height="37.139" transform="translate(50.537 26.85)" fill="#fff"/>
              <path id="Path_115" data-name="Path 115" d="M77.741,75.5H71.69a.341.341,0,0,1-.341-.341V38.022a.341.341,0,0,1,.341-.341h6.052a.341.341,0,0,1,.341.341V75.16a.341.341,0,0,1-.341.341m-5.711-.682H77.4V38.363h-5.37Z" transform="translate(-21.152 -11.171)"/>
              <rect id="Rectangle_65" data-name="Rectangle 65" width="6.052" height="5.524" transform="translate(26.345 58.465)" fill="#acd4f7"/>
              <path id="Path_116" data-name="Path 116" d="M43.354,88.824H37.3a.341.341,0,0,1-.341-.341V82.958a.341.341,0,0,1,.341-.341h6.052a.341.341,0,0,1,.341.341v5.524a.341.341,0,0,1-.341.341m-5.711-.682h5.37V83.3h-5.37Z" transform="translate(-10.958 -24.493)"/>
              <rect id="Rectangle_66" data-name="Rectangle 66" width="6.052" height="9.797" transform="translate(38.444 54.193)" fill="#acd4f7"/>
              <path id="Path_117" data-name="Path 117" d="M60.552,87.023H54.5a.341.341,0,0,1-.341-.341v-9.8a.341.341,0,0,1,.341-.341h6.052a.341.341,0,0,1,.341.341v9.8a.341.341,0,0,1-.341.341m-5.711-.682h5.37V77.226h-5.37Z" transform="translate(-16.057 -22.693)"/>
              <rect id="Rectangle_67" data-name="Rectangle 67" width="6.052" height="18.759" transform="translate(50.537 45.42)" fill="#acd4f7"/>
              <path id="Path_118" data-name="Path 118" d="M77.741,83.516H71.69a.341.341,0,0,1-.341-.341V64.416a.341.341,0,0,1,.341-.341h6.052a.341.341,0,0,1,.341.341V83.175a.342.342,0,0,1-.341.341m-5.711-.682H77.4V64.757h-5.37Z" transform="translate(-21.152 -18.996)"/>
              <path id="Path_119" data-name="Path 119" d="M128.028,78.85H106.747a.341.341,0,0,1,0-.682h21.282a.341.341,0,1,1,0,.682" transform="translate(-31.546 -23.174)"/>
              <path id="Path_120" data-name="Path 120" d="M122.462,91.906H106.747a.341.341,0,0,1,0-.682h15.716a.341.341,0,1,1,0,.682" transform="translate(-31.546 -27.045)"/>
              <g id="Group_100" data-name="Group 100" transform="translate(0.135 8.218)" opacity="0.129">
                <g id="Group_99" data-name="Group 99">
                  <g id="Group_98" data-name="Group 98" clip-path="url(#clip-path-6)">
                    <path id="Path_121" data-name="Path 121" d="M129.564,12.065a.951.951,0,0,0-.482-.13c-.129.013-.257.027-.386.049l.253-.034a8.37,8.37,0,0,1-1.852,0c-1.695-.1-3.4-.023-5.094-.126-2.324-.054-4.65-.022-6.975-.049-2.749.063-5.5.145-8.241.288-2.687.019-5.375.056-8.063.013-3.537-.008-7.073.114-10.609.106-2.04-.006-4.071-.252-6.111-.2-4.128.094-8.256.239-12.384.35-4.062.013-8.122.052-12.185.019-2.938,0-5.875-.154-8.812-.141-3.154.067-6.306.292-9.462.241-2.834-.03-5.659-.251-8.485-.426-2.568-.07-5.134.04-7.7.083q-4.019.033-8.039-.019c-2.744-.117-5.483-.338-8.229-.413-1.157,0-2.311.073-3.466.1-.642.015-1.282.059-1.921.109a.71.71,0,0,0-.362.081.894.894,0,0,0-.556.7.787.787,0,0,0-.147.648.852.852,0,0,0,.769,1.19c1.245.061,2.491.051,3.736.094,1.281.049,2.562.14,3.845.118,2.613-.08,5.22-.325,7.836-.312,3.527.072,7.053-.09,10.58-.1,2.934.1,5.868.269,8.8.2.647-.024,1.293-.072,1.939-.114.466.021.931.039,1.4.047,3.189.091,6.377-.115,9.565-.162,4.42.078,8.84.227,13.262.19,2.373.011,4.745-.1,7.118-.076,2.483-.028,4.965-.151,7.449-.183,2.5-.048,4.991-.187,7.488-.156,2.58.124,5.161.115,7.742.174,2.728.083,5.456-.066,8.185-.025,2.12.029,4.241-.046,6.361-.034,1.635-.037,3.264-.21,4.9-.234,2.248-.066,4.5-.155,6.745-.081,1.65-.007,3.3-.03,4.949.059s4.29-.015,5.036-.023A9.344,9.344,0,0,0,129,13.853a1.051,1.051,0,0,0,.761-.288.966.966,0,0,0-.193-1.5" transform="translate(-0.192 -11.681)"/>
                  </g>
                </g>
              </g>
              <path id="Path_122" data-name="Path 122" d="M169.189,82.846q-.821-.529-1.657-1.034c4-7.3,11.628-9.509,16.347-9.847,4.484.145,7.568.145,12.894,3.234a16.819,16.819,0,0,1,5.21,5.64q-.966.618-1.929,1.241-2.346,1.519-4.69,3.044c-2.161-3.983-6.439-6.008-11.5-6.008-5.086,0-8.372,3.335-10.156,6.912-1.47-1.113-2.969-2.187-4.516-3.183" transform="translate(-49.667 -21.335)" fill="#fff"/>
              <path id="Path_123" data-name="Path 123" d="M173.561,86.226a.339.339,0,0,1-.206-.07c-1.625-1.23-3.095-2.267-4.495-3.168-.5-.325-1.043-.662-1.649-1.029a.341.341,0,0,1-.122-.455c4.676-8.53,13.9-9.828,16.622-10.023h.035l.43.013c4.294.136,7.4.234,12.624,3.267a17.009,17.009,0,0,1,5.331,5.758.341.341,0,0,1-.108.464q-.966.618-1.928,1.24l-.909.588q-1.891,1.224-3.779,2.455a.34.34,0,0,1-.486-.122c-2.011-3.7-6.095-5.829-11.205-5.829-5.652,0-8.6,4.212-9.85,6.723a.341.341,0,0,1-.227.18.368.368,0,0,1-.077.009m-4.332-3.811c1.321.851,2.7,1.819,4.213,2.954,1.418-2.675,4.521-6.737,10.273-6.737,5.22,0,9.432,2.132,11.622,5.864q1.736-1.134,3.478-2.258l.909-.588q.822-.532,1.648-1.062a16.27,16.27,0,0,0-4.916-5.238c-5.08-2.947-8.109-3.043-12.3-3.175l-.412-.013c-2.621.19-11.349,1.429-15.9,9.384.5.305.953.59,1.383.867" transform="translate(-49.524 -21.191)"/>
              <path id="Path_124" data-name="Path 124" d="M195.99,115.933q-.436-2.554-.974-5.088a13.619,13.619,0,0,0,3.776-.841,8.866,8.866,0,0,0,2.916-2.065A12.139,12.139,0,0,0,205,101.217a23.52,23.52,0,0,0,.007-4.327,14.7,14.7,0,0,0-.314-2.431c2.617-.626,5.189-1.452,7.816-2.04a24.575,24.575,0,0,1-.461,14.234c-2.45,7.751-9.648,10.609-15.516,11.542-.165-.758-.347-1.512-.542-2.263" transform="translate(-57.815 -27.399)" fill="#acd4f7"/>
              <path id="Path_125" data-name="Path 125" d="M196.388,118.393a.342.342,0,0,1-.333-.269c-.156-.721-.332-1.457-.538-2.249a.212.212,0,0,1-.006-.029c-.276-1.621-.594-3.281-.971-5.075a.341.341,0,0,1,.3-.409,13.125,13.125,0,0,0,3.681-.817,8.55,8.55,0,0,0,2.8-1.987,11.775,11.775,0,0,0,3.2-6.532,18.831,18.831,0,0,0,.038-3.594q-.018-.335-.034-.67a14.489,14.489,0,0,0-.307-2.375.341.341,0,0,1,.254-.4c1.187-.284,2.386-.616,3.547-.936,1.394-.386,2.836-.784,4.274-1.105a.341.341,0,0,1,.4.241,24.936,24.936,0,0,1-.464,14.429c-2.548,8.063-9.992,10.854-15.787,11.776a.349.349,0,0,1-.053,0m-.208-2.676c.177.681.332,1.321.471,1.945,5.557-.942,12.53-3.67,14.928-11.256a24.343,24.343,0,0,0,.542-13.727c-1.317.3-2.64.67-3.924,1.025-1.062.293-2.157.6-3.249.864a15.244,15.244,0,0,1,.255,2.161q.016.333.034.666a19.628,19.628,0,0,1-.044,3.723,12.457,12.457,0,0,1-3.385,6.913,9.09,9.09,0,0,1-3.032,2.144,13.138,13.138,0,0,1-3.494.823c.344,1.657.638,3.2.9,4.718" transform="translate(-57.672 -27.255)"/>
              <path id="Path_126" data-name="Path 126" d="M164.249,94.742c2.375.406,4.746.826,7.092,1.4a13.3,13.3,0,0,0-.383,2.274,10.662,10.662,0,0,0,.139,2.258,19.8,19.8,0,0,0,1.173,3.982,10.5,10.5,0,0,0,4.6,5.662,12.2,12.2,0,0,0,4.035,1.154c.192.025.385.045.578.064q-.139,1.318-.28,2.635-.275,2.539-.565,5.077c-.148-.01-.291-.02-.422-.031-11.207-.965-16.446-12.874-16.446-19.123a28.66,28.66,0,0,1,.478-5.348" transform="translate(-48.552 -28.088)" fill="#fff"/>
              <path id="Path_127" data-name="Path 127" d="M180.494,119.441h-.021c-.151-.01-.3-.02-.43-.032a17.2,17.2,0,0,1-12.676-7.724,22.266,22.266,0,0,1-4.082-11.738,29.208,29.208,0,0,1,.484-5.412.341.341,0,0,1,.393-.272c2.4.409,4.744.825,7.116,1.4a.341.341,0,0,1,.25.415,12.846,12.846,0,0,0-.375,2.215,10.357,10.357,0,0,0,.135,2.175,19.45,19.45,0,0,0,1.153,3.912c1.1,2.706,2.589,4.551,4.439,5.485a11.727,11.727,0,0,0,3.924,1.12c.189.024.379.044.568.063a.344.344,0,0,1,.231.125.34.34,0,0,1,.075.251l-.048.451q-.115,1.092-.232,2.184-.272,2.514-.559,5.026l-.006.053a.342.342,0,0,1-.339.3M164.38,94.991a28.752,28.752,0,0,0-.412,4.956,21.391,21.391,0,0,0,3.959,11.347,16.541,16.541,0,0,0,12.175,7.436l.09.007q.268-2.374.528-4.751.118-1.091.232-2.183l.012-.112-.245-.029a12.385,12.385,0,0,1-4.146-1.188c-2-1.01-3.6-2.975-4.764-5.839a20.051,20.051,0,0,1-1.192-4.051,11.069,11.069,0,0,1-.144-2.341,13.086,13.086,0,0,1,.312-2c-2.129-.5-4.249-.884-6.406-1.254" transform="translate(-48.409 -27.944)"/>
              <path id="Path_128" data-name="Path 128" d="M184.151,126.727a.113.113,0,0,1-.079-.195l1.43-1.4a.114.114,0,1,1,.159.163l-1.43,1.4a.113.113,0,0,1-.079.032" transform="translate(-54.561 -37.089)"/>
              <path id="Path_129" data-name="Path 129" d="M181.452,125.331a.112.112,0,0,1-.087-.04.114.114,0,0,1,.013-.16c1.289-1.092,2.557-2.244,3.767-3.424a.114.114,0,0,1,.159.163c-1.215,1.183-2.486,2.339-3.779,3.435a.114.114,0,0,1-.073.027" transform="translate(-53.76 -36.072)"/>
              <path id="Path_130" data-name="Path 130" d="M179.009,123.953a.114.114,0,0,1-.076-.2l4.731-4.257a.113.113,0,0,1,.16.009.114.114,0,0,1-.008.16l-4.731,4.257a.116.116,0,0,1-.076.029" transform="translate(-53.036 -35.418)"/>
              <path id="Path_131" data-name="Path 131" d="M176.358,122.478a.113.113,0,0,1-.07-.2c1.489-1.157,2.949-2.391,4.337-3.672a.114.114,0,1,1,.154.167c-1.393,1.284-2.857,2.524-4.352,3.684a.113.113,0,0,1-.07.024" transform="translate(-52.25 -35.153)"/>
              <path id="Path_132" data-name="Path 132" d="M174.188,120.618a.113.113,0,0,1-.063-.208c1.524-1.029,3.015-2.145,4.432-3.317a.114.114,0,0,1,.145.175c-1.423,1.177-2.92,2.3-4.451,3.33a.112.112,0,0,1-.063.02" transform="translate(-51.607 -34.706)"/>
              <path id="Path_133" data-name="Path 133" d="M172.237,118.731a.115.115,0,0,1-.094-.049.113.113,0,0,1,.029-.158c1.425-.993,2.845-2.035,4.221-3.1a.114.114,0,0,1,.139.18c-1.378,1.065-2.8,2.11-4.23,3.1a.11.11,0,0,1-.065.02" transform="translate(-51.028 -34.213)"/>
              <path id="Path_134" data-name="Path 134" d="M170.6,116.592a.113.113,0,0,1-.061-.21c1.439-.907,2.892-1.845,4.317-2.787a.113.113,0,0,1,.125.189c-1.427.943-2.88,1.882-4.321,2.79a.114.114,0,0,1-.061.018" transform="translate(-50.542 -33.672)"/>
              <path id="Path_135" data-name="Path 135" d="M169.214,114.241a.114.114,0,0,1-.058-.212l4.092-2.419a.114.114,0,0,1,.115.2l-4.092,2.419a.115.115,0,0,1-.058.015" transform="translate(-50.132 -33.084)"/>
              <path id="Path_136" data-name="Path 136" d="M168.154,111.977a.114.114,0,0,1-.056-.213l4.193-2.332a.114.114,0,0,1,.11.2l-4.193,2.332a.111.111,0,0,1-.055.015" transform="translate(-49.818 -32.438)"/>
              <path id="Path_137" data-name="Path 137" d="M167.042,109.433a.114.114,0,0,1-.055-.213l4.218-2.314a.114.114,0,0,1,.109.2l-4.217,2.314a.112.112,0,0,1-.055.014" transform="translate(-49.488 -31.69)"/>
              <path id="Path_138" data-name="Path 138" d="M166.155,106.868a.113.113,0,0,1-.057-.212c1.492-.869,3.02-1.722,4.541-2.538a.113.113,0,1,1,.108.2c-1.519.815-3.044,1.667-4.534,2.535a.11.11,0,0,1-.057.015" transform="translate(-49.226 -30.863)"/>
              <path id="Path_139" data-name="Path 139" d="M165.629,104.022a.114.114,0,0,1-.049-.216l4.747-2.291a.115.115,0,0,1,.152.053.113.113,0,0,1-.053.151l-4.748,2.291a.112.112,0,0,1-.049.011" transform="translate(-49.069 -30.093)"/>
              <path id="Path_140" data-name="Path 140" d="M165.576,101.248a.112.112,0,0,1-.1-.065.114.114,0,0,1,.054-.151c1.609-.756,3.231-1.541,4.821-2.332a.114.114,0,0,1,.1.2c-1.592.793-3.216,1.578-4.826,2.335a.115.115,0,0,1-.048.011" transform="translate(-49.054 -29.257)"/>
              <path id="Path_141" data-name="Path 141" d="M165.582,98.854a.112.112,0,0,1-.1-.067.113.113,0,0,1,.057-.151,33.25,33.25,0,0,0,3.048-1.563.114.114,0,1,1,.114.2,33.618,33.618,0,0,1-3.069,1.573.122.122,0,0,1-.046.01" transform="translate(-49.056 -28.774)"/>
              <path id="Path_142" data-name="Path 142" d="M165.726,97.01a.114.114,0,0,1-.046-.217l.857-.379a.114.114,0,1,1,.092.208l-.857.379a.1.1,0,0,1-.046.01" transform="translate(-49.098 -28.58)"/>
              <g id="Group_103" data-name="Group 103" transform="translate(115.093 66.444)" opacity="0.129">
                <g id="Group_102" data-name="Group 102">
                  <g id="Group_101" data-name="Group 101" clip-path="url(#clip-path-7)">
                    <path id="Path_143" data-name="Path 143" d="M180.824,118.013a.585.585,0,0,0,0-.485.7.7,0,0,0-.851-.367,8.045,8.045,0,0,1-2.071-.341A15.69,15.69,0,0,1,174.2,115.1a14.164,14.164,0,0,1-3.282-2.6q-.339-.385-.663-.782a18.91,18.91,0,0,1-2.09-3.614,16.776,16.776,0,0,1-1.086-2.464,19.326,19.326,0,0,1-1.457-6.4,10.679,10.679,0,0,1,.262-3.343.78.78,0,0,0-.758-.977.54.54,0,0,0-.909-.326.467.467,0,0,0-.047.06.675.675,0,0,0-.213-.051,6.061,6.061,0,0,1-.154,2.1,11.524,11.524,0,0,0-.146,2.55,14.745,14.745,0,0,0,.015,2.591,2.851,2.851,0,0,0,.387.877.833.833,0,0,0-.068-.171.937.937,0,0,0-.086-.156,15.392,15.392,0,0,1-.1-2.854c.027-.561.061-1.025.116-1.461a.523.523,0,0,0,.045.129,14.683,14.683,0,0,0,.166,3.638,14.319,14.319,0,0,0,.359,1.586c.044.081.084.162.12.244a2.465,2.465,0,0,1,.2.78c.1.3.205.591.314.885a23.849,23.849,0,0,0,1.357,3.226,31.251,31.251,0,0,0,1.731,3.211,20.363,20.363,0,0,0,2.589,3,13.826,13.826,0,0,0,4.985,3.314,7.458,7.458,0,0,0,1.559.221c.062.011.125.02.185.034.357.082.694.227,1.045.326.3.08.611.114.9.219a2.93,2.93,0,0,0,.461.208.783.783,0,0,0,.9-1.1" transform="translate(-163.593 -94.443)"/>
                  </g>
                </g>
              </g>
              <g id="Group_106" data-name="Group 106" transform="translate(118.307 55.584)" opacity="0.129">
                <g id="Group_105" data-name="Group 105">
                  <g id="Group_104" data-name="Group 104" clip-path="url(#clip-path-8)">
                    <path id="Path_144" data-name="Path 144" d="M168.311,83.627a10.79,10.79,0,0,1,2.844-4.429.636.636,0,0,1,.9.9,7.2,7.2,0,0,0-1.672,2.635c-.219.561-.445,1.121-.61,1.7-.363,1.207-2.134.614-1.462-.807" transform="translate(-168.161 -79.007)"/>
                  </g>
                </g>
              </g>
              <g id="Group_109" data-name="Group 109" transform="translate(138.093 87.165)" opacity="0.129">
                <g id="Group_108" data-name="Group 108">
                  <g id="Group_107" data-name="Group 107" clip-path="url(#clip-path-9)">
                    <path id="Path_145" data-name="Path 145" d="M197.068,125.675a5.523,5.523,0,0,0,2.341-.248c.965-.253,1.94-.467,2.9-.744.818-.2,2.037-.7,2.391-.779a.567.567,0,0,1,.358,1.05c-.589.317-1.161.669-1.776.934-.511.224-1.06.346-1.584.535a12.443,12.443,0,0,1-3.532.872,4.528,4.528,0,0,1-1.09-.042.771.771,0,0,1-.481-.172.787.787,0,0,1,.477-1.406" transform="translate(-196.284 -123.895)"/>
                  </g>
                </g>
              </g>
            </g>
          </g>
        </g>
      </g>
    </g>
    <g id="Group_242" data-name="Group 242" transform="translate(662.254 386.002)">
      <g id="Group_230" data-name="Group 230" clip-path="url(#clip-path-10)">
        <path id="Path_179" data-name="Path 179" d="M20.873,41.746h0A20.873,20.873,0,0,1,0,20.873H0a20.873,20.873,0,0,1,41.746,0h0A20.873,20.873,0,0,1,20.873,41.746" fill="#00cc60"/>
        <path id="Path_180" data-name="Path 180" d="M132.4,192.232l-9.094-9.094,3.272-3.272,5.822,5.822L147.1,170.981l3.272,3.272Z" transform="translate(-115.775 -160.542)" fill="#fff"/>
      </g>
    </g>
  </g>
</svg>
