<svg xmlns="http://www.w3.org/2000/svg" xmlns:xlink="http://www.w3.org/1999/xlink" width="80" height="80" viewBox="0 0 80 80">
  <defs>
    <clipPath id="clip-path">
      <rect id="Rectangle_156" data-name="Rectangle 156" width="42.449" height="35.822" fill="none"/>
    </clipPath>
  </defs>
  <g id="Group_387" data-name="Group 387" transform="translate(-643 -271)">
    <circle id="Ellipse_28" data-name="Ellipse 28" cx="40" cy="40" r="40" transform="translate(643 271)" fill="#de3b21"/>
    <g id="Group_386" data-name="Group 386" transform="translate(662 293)">
      <g id="Group_385" data-name="Group 385" transform="translate(0 0)" clip-path="url(#clip-path)">
        <path id="Path_209" data-name="Path 209" d="M41.8,28.213,25.5,2.372a5.081,5.081,0,0,0-8.6,0L.692,28.213v.049A4.95,4.95,0,0,0,0,30.782a5.061,5.061,0,0,0,5.04,5.04H37.4a5.061,5.061,0,0,0,5.04-5.04,4.738,4.738,0,0,0-.642-2.569m-4.348,4.645H5.04a2.088,2.088,0,0,1-2.075-2.075,2.249,2.249,0,0,1,.247-.988L19.467,4a2.094,2.094,0,0,1,3.557,0L39.281,29.744a1.805,1.805,0,0,1,.247,1.038,2.088,2.088,0,0,1-2.075,2.075" transform="translate(0 0)" fill="#fff"/>
        <path id="Path_210" data-name="Path 210" d="M32.711,41.808a1.9,1.9,0,0,0-1.433.593,1.977,1.977,0,0,0-.593,1.432,1.75,1.75,0,0,0,.642,1.483,2.162,2.162,0,0,0,2.866,0,1.866,1.866,0,0,0,.593-1.483,1.978,1.978,0,0,0-.593-1.432,2.178,2.178,0,0,0-1.482-.593" transform="translate(-11.465 -15.621)" fill="#fff"/>
        <path id="Path_211" data-name="Path 211" d="M32.78,15.382a2.018,2.018,0,0,0-1.581.642,2.5,2.5,0,0,0-.593,1.779c0,.544.049,1.483.1,2.718l.445,6.522a6.38,6.38,0,0,0,.4,1.878,1.1,1.1,0,0,0,1.037.642,1.03,1.03,0,0,0,1.038-.642,5.308,5.308,0,0,0,.4-1.828l.643-6.72c.049-.642.1-1.235.1-1.828a5.61,5.61,0,0,0-.4-2.322,1.55,1.55,0,0,0-1.581-.84" transform="translate(-11.435 -5.747)" fill="#fff"/>
      </g>
    </g>
  </g>
</svg>
