<svg xmlns="http://www.w3.org/2000/svg" width="112" height="40" viewBox="0 0 112 40">
  <g id="Group_396" data-name="Group 396" transform="translate(-40 -24)">
    <rect id="Rectangle_157" data-name="Rectangle 157" width="112" height="40" transform="translate(40 24.001)" fill="none"/>
    <g id="retrAIver-3" transform="translate(40 27.942)">
      <path id="Path_212" data-name="Path 212" d="M86.346.4V6.464h8.128S94.425.4,94.474.4h3.99V15.553h-3.99V8.888H86.346v6.665h-3.99V.4h3.99M48.273.4V2.98h-6.16V15.553h-4.04V2.98h-6.11V.4h16.31m15.6,15.149H59.382l-1.313-3.282H50.545l-1.313,3.282H44.789L51.858.4h4.9l7.12,15.148ZM54.332,2.98,51.5,9.847H57.11L54.332,2.98m47.316,12.573V.4h4.039V15.553h-4.039M11.21.4V6.464h8.079V.4h4.039V15.553H19.289V8.888H11.21v6.665H7.17S7.221.4,7.17.4h4.04m15.3,15.149V.4H30.5V15.553H26.51m37.215-4.191a10.11,10.11,0,0,1-.555-3.232,8.768,8.768,0,0,1,1.06-4.444A6.664,6.664,0,0,1,67.664.809a12.592,12.592,0,0,1,9.5.253A4.98,4.98,0,0,1,80.034,4.6c.049.3.1.606.154.959H75.995a4.17,4.17,0,0,0-.252-1.161,2.836,2.836,0,0,0-1.865-1.767,6.842,6.842,0,0,0-1.767-.252,5.049,5.049,0,0,0-1.971.353,3.478,3.478,0,0,0-2.223,2.222,9.358,9.358,0,0,0-.555,3.181,8.931,8.931,0,0,0,.4,2.626,3.6,3.6,0,0,0,2.171,2.424,6.387,6.387,0,0,0,2.174.4,5.78,5.78,0,0,0,1.865-.3,2.99,2.99,0,0,0,1.767-1.565,4.346,4.346,0,0,0,.3-1.616h4.243a12.287,12.287,0,0,1-.2,1.414,4.709,4.709,0,0,1-2.826,3.333,12.523,12.523,0,0,1-5.148,1.06,13.84,13.84,0,0,1-4.093-.606,6.555,6.555,0,0,1-4.292-3.939M3.585,19.8,0,20.1v.555H.152c1.413.152,1.413.152,1.413,1.213v7.473H3.737V19.8H3.585m7.574,2.827a2.983,2.983,0,0,0-2.474,1.464V22.572l-.152.051-2.878.454v.5h.1c.909.051,1.111.2,1.111,1.062v4.7H8.685V25.9c0-.908.858-2.121,1.767-2.121.858,0,.909.758.909,1.919v3.635h1.818v-4.7a1.813,1.813,0,0,0-2.02-2.02m7.069,2.626c-.707-.353-1.313-.656-1.313-1.161,0-.555.656-.606.959-.606a3.8,3.8,0,0,1,1.717.555l.252.2V22.874l-.2-.049a9.885,9.885,0,0,0-1.666-.2c-1.666,0-2.727.707-2.727,1.97,0,1.06,1.06,1.615,2.02,2.069.707.353,1.414.656,1.414,1.212,0,.506-.455.758-1.212.758a3.765,3.765,0,0,1-1.969-.656l-.2-.152v1.414h.1a7.864,7.864,0,0,0,2.02.253c1.818,0,2.929-.757,2.929-2.02,0-1.212-1.111-1.767-2.121-2.221m7.978-2.626a2.731,2.731,0,0,0-1.919.91v-.96l-.152.05-2.878.455v.5h.152c.858.051,1.06.2,1.06,1.062v7.473h1.818V28.733a2.171,2.171,0,0,0,1.868.758c1.868,0,2.878-1.212,2.878-3.535,0-2.121-1.01-3.333-2.828-3.333Zm-.5,1.01c1.212,0,1.363,1.314,1.363,2.323q0,2.574-1.363,2.575c-1.161,0-1.414-1.111-1.414-2.019V25.9c0-.656.151-2.273,1.414-2.273m4.6-.555v.5h.1c.909.051,1.111.2,1.111,1.062v4.7h1.767V22.572l-.1.051-2.878.454m2.121-1.262a.991.991,0,1,0-1.111-1.01,1.071,1.071,0,0,0,1.111,1.01M40.9,24.087V22.724l-.152-.051a4.612,4.612,0,0,0-.858-.051,2.028,2.028,0,0,0-1.818,1.313V22.572l-.151.051-2.878.454v.5h.1c.909.051,1.111.2,1.111,1.062v4.7h1.818V25.955a1.728,1.728,0,0,1,1.868-1.868,2.966,2.966,0,0,1,.656.1l.3.1v-.2m7.12,1.263c0-1.817-1.01-2.727-2.979-2.727-2.272,0-3.383,1.06-3.383,3.231,0,2.273,1.464,3.637,3.939,3.637a6.912,6.912,0,0,0,2.171-.353l.1-.051v-.859l-.152.051a4.43,4.43,0,0,1-1.414.252c-1.919,0-2.676-1.615-2.676-3.081h4.393v-.1Zm-3.03-2.02c.959,0,1.212.706,1.212,1.363H43.628a1.342,1.342,0,0,1,1.363-1.363m19.542-.707a2.778,2.778,0,0,0-2.475,1.413V19.541h-.152l-2.878.4v.506h.1c.908,0,1.111.2,1.111,1.111v7.776h1.817V26.005a2.109,2.109,0,0,1,1.666-2.222c1.01,0,1.01.758,1.01,1.414v4.141h1.819V25c0-.707,0-2.374-2.02-2.374m10.15,2.727c0-1.817-1.01-2.727-2.981-2.727-2.272,0-3.383,1.06-3.383,3.231,0,2.273,1.464,3.637,3.888,3.637a7.035,7.035,0,0,0,2.223-.353l.1-.051v-.859l-.147.051a4.458,4.458,0,0,1-1.417.252c-1.922,0-2.679-1.615-2.679-3.081h4.4v-.1ZM71.6,23.33c1.01,0,1.262.706,1.262,1.363H70.286A1.3,1.3,0,0,1,71.6,23.329M54.383,20.7v2.071H53.172v.806h1.211v4.041c0,1.767,1.111,1.868,2.474,1.868a7.517,7.517,0,0,0,1.06-.1h.1v-.808h-.152a1.89,1.89,0,0,1-.555.051c-1.06,0-1.111-.3-1.111-1.212V23.581h2.02v-.807H56.2V20.7H54.383m35.6-.758H88.162v7.12c-.351-.555-4.692-7.12-4.692-7.12H79.277v.506l.351.1c1.115.151,1.164.2,1.164,1.262v7.524h1.971V21.865c.351.556,4.951,7.473,4.951,7.473h2.37V19.946h-.105m8.233,5.4q0-2.726-3.03-2.727c-2.223,0-3.38,1.06-3.38,3.231,0,2.273,1.466,3.637,3.934,3.637a7.3,7.3,0,0,0,2.223-.353l.105-.051v-.859l-.154.051a4.816,4.816,0,0,1-1.466.252c-1.915,0-2.623-1.615-2.679-3.03h4.446v-.151Zm-3.079-2.02c.961,0,1.213.706,1.262,1.363h-2.63a1.385,1.385,0,0,1,1.367-1.363M108.157,20.7v2.071H106.95v.806h1.206v4.041c0,1.767,1.115,1.868,2.476,1.868a7.4,7.4,0,0,0,1.059-.1h.154v-.808h-.2a1.536,1.536,0,0,1-.5.051c-1.108,0-1.157-.3-1.157-1.212V23.581H112v-.807h-2.02V20.7h-1.823m-3.633,4.191,1.866-2.12h-1.914l-1.767,2.019-1.564-2.019H98.366v.5h.147a1.915,1.915,0,0,1,1.718,1.011L101.4,25.8l-1.872,2.121h1.922l.806-.96,1.816,2.374h2.125l-3.387-4.444h1.718" transform="translate(0 0)"/>
      <path id="Path_213" data-name="Path 213" d="M736.816,127.367H734.9l2.321-2.677h1.922l-2.329,2.677" transform="translate(-628.66 -106.663)" fill="#d40000"/>
    </g>
  </g>
</svg>
