<svg xmlns="http://www.w3.org/2000/svg" width="73.401" height="11.853" viewBox="0 0 73.401 11.853">
  <g id="Group_1" data-name="Group 1" transform="translate(0 0)">
    <path id="path10795" d="M-9.143,0V4.516H-3.1C-3.1,4.531-3.1,0-3.1,0S-.138,0-.106,0c0,0,.01,11.282,0,11.294H-3.1V6.322c0,.016-6.043,0-6.043,0,.005.021,0,4.975,0,4.971h-2.988S-12.116,0-12.131,0Z" transform="translate(68.143 0.282)"/>
    <path id="path10799" d="M-37.158,0V1.92h-4.578v9.374h-2.988V1.92H-49.3S-49.3,0-49.3,0s12.144,0,12.144,0" transform="translate(67.764 0.281)"/>
    <path id="path10803" d="M-21.772-5.876-23.854-.737h4.164Zm7.11,9.374h-3.33c.005,0-.979-2.427-.979-2.427h-5.608S-25.542,3.5-25.553,3.5s-3.335,0-3.335,0L-23.605-7.8c0,.005,3.666,0,3.666,0Z" transform="translate(56.893 8.077)"/>
    <path id="path10805" d="M582.975,485.262h2.993V473.968h-2.993Z" transform="translate(-512.566 -473.688)"/>
    <path id="path10817" d="M-9.159,0s-.005,4.55,0,4.517h6.043c0,.016-.01-4.518,0-4.517C-3.126,0-.153,0-.122,0c0,0,.01,11.282,0,11.294H-3.115V6.322c0,.016-6.043,0-6.043,0,0,.021-.005,4.975,0,4.971h-2.993S-12.137,0-12.152,0Z" transform="translate(12.152 0.282)"/>
    <path id="path10819" d="M355.6,485.262h2.988V473.968H355.6Z" transform="translate(-341.194 -473.688)"/>
    <path id="path10831" d="M-1.236-25.852a7.306,7.306,0,0,1-.4-2.41,6.4,6.4,0,0,1,.777-3.293A5.021,5.021,0,0,1,1.711-33.7a9.342,9.342,0,0,1,3.314-.6,9.515,9.515,0,0,1,3.775.795A3.665,3.665,0,0,1,10.934-30.9a4.692,4.692,0,0,1,.1.717H7.9a2.661,2.661,0,0,0-.161-.868,2.182,2.182,0,0,0-1.4-1.306,4.394,4.394,0,0,0-1.31-.2,4.358,4.358,0,0,0-1.481.254,2.717,2.717,0,0,0-1.636,1.658A7.071,7.071,0,0,0,1.5-28.262a7.529,7.529,0,0,0,.285,1.983A2.7,2.7,0,0,0,3.42-24.493a4.578,4.578,0,0,0,1.605.3,4.51,4.51,0,0,0,1.383-.213,2.168,2.168,0,0,0,1.31-1.174A3.015,3.015,0,0,0,7.961-26.8h3.154a6.471,6.471,0,0,1-.15,1.072,3.643,3.643,0,0,1-2.092,2.492,9.946,9.946,0,0,1-3.848.785,10.108,10.108,0,0,1-3.035-.466,4.916,4.916,0,0,1-3.226-2.938" transform="translate(43.364 34.301)"/>
  </g>
</svg>
