<svg xmlns="http://www.w3.org/2000/svg" width="24.003" height="24" viewBox="0 0 24.003 24">
  <g id="Group_244" data-name="Group 244" transform="translate(-1151.997 -264)">
    <rect id="Rectangle_40" data-name="Rectangle 40" width="24" height="24" transform="translate(1152 264)" fill="none"/>
    <path id="Path_79" data-name="Path 79" d="M51.729,50.667l5.62-3.245a.388.388,0,0,0,0-.672l-5.62-3.245a.389.389,0,0,0-.582.336v6.49a.389.389,0,0,0,.582.336Z" transform="translate(1110.602 228.914)" fill="#fff"/>
    <g id="focus" transform="translate(1150.917 263.372)">
      <path id="Path_176" data-name="Path 176" d="M46.794,128.3l.247-.4-.247-.4a14.866,14.866,0,0,0-2.97-3.283,13.393,13.393,0,0,0-17.541,0,15.009,15.009,0,0,0-2.992,3.281l-.253.407.253.407a15.008,15.008,0,0,0,2.992,3.281,13.393,13.393,0,0,0,17.541,0A14.858,14.858,0,0,0,46.794,128.3Zm-4,2.129a11.844,11.844,0,0,1-15.485,0,14.584,14.584,0,0,1-2.421-2.531,14.584,14.584,0,0,1,2.421-2.531,11.844,11.844,0,0,1,15.485,0,14.4,14.4,0,0,1,2.4,2.533A14.4,14.4,0,0,1,42.795,130.429Zm0,0" transform="translate(-21.959 -115.269)" fill="#5c4384"/>
      <path id="Path_177" data-name="Path 177" d="M170.511,165.867a4.644,4.644,0,1,0,4.644,4.644A4.649,4.649,0,0,0,170.511,165.867Zm0,7.742a3.1,3.1,0,1,1,3.1-3.1A3.1,3.1,0,0,1,170.511,173.609Zm0,0" transform="translate(-157.428 -157.883)" fill="#5c4384"/>
    </g>
  </g>
</svg>
